<?xml version="1.0" encoding="UTF-8"?>
<!DOCTYPE svg PUBLIC "-//W3C//DTD SVG 1.1//EN" "http://www.w3.org/Graphics/SVG/1.1/DTD/svg11.dtd">
<svg xmlns="http://www.w3.org/2000/svg" version="1.1" width="512px" height="512px" style="shape-rendering:geometricPrecision; text-rendering:geometricPrecision; image-rendering:optimizeQuality; fill-rule:evenodd; clip-rule:evenodd" xmlns:xlink="http://www.w3.org/1999/xlink">
<g><path style="opacity:1" fill="#ff1104" d="M 234.5,-0.5 C 248.167,-0.5 261.833,-0.5 275.5,-0.5C 286.093,0.827994 296.76,2.49466 307.5,4.5C 307.611,5.11742 307.944,5.61742 308.5,6C 310.473,6.49546 312.473,6.66212 314.5,6.5C 387.411,24.852 442.578,66.5187 480,131.5C 485.951,142.063 490.784,153.063 494.5,164.5C 483.654,164.172 472.987,164.506 462.5,165.5C 462.5,225.5 462.5,285.5 462.5,345.5C 473.505,345.333 484.505,345.5 495.5,346C 466.285,418.882 414.951,469.215 341.5,497C 320.227,504.218 298.56,509.052 276.5,511.5C 262.5,511.5 248.5,511.5 234.5,511.5C 136.487,499.764 65.6533,449.764 22,361.5C 20.2192,356.154 18.0525,350.987 15.5,346C 24.8274,345.5 34.1607,345.334 43.5,345.5C 43.3334,323.831 43.5,302.164 44,280.5C 49.1552,302.111 53.9885,323.778 58.5,345.5C 60.5706,346.809 63.0706,347.475 66,347.5C 68.6903,347.497 71.1903,347.164 73.5,346.5C 78.7273,324.2 83.8939,301.866 89,279.5C 89.5,301.497 89.6666,323.497 89.5,345.5C 111.167,345.5 132.833,345.5 154.5,345.5C 155.5,340.167 156.5,334.833 157.5,329.5C 166.173,329.334 174.84,329.5 183.5,330C 185.221,335.05 186.554,340.217 187.5,345.5C 208.66,346.497 229.993,346.831 251.5,346.5C 251.17,326.66 251.503,306.993 252.5,287.5C 259.453,306.404 266.119,325.404 272.5,344.5C 277.96,345.829 283.793,346.496 290,346.5C 295.833,346.167 301.667,345.833 307.5,345.5C 307.376,344.893 307.043,344.56 306.5,344.5C 298.704,322.447 290.704,300.447 282.5,278.5C 288.644,273.186 293.478,266.853 297,259.5C 300.885,250.512 303.552,241.178 305,231.5C 311.042,266.088 316.542,300.754 321.5,335.5C 321.336,338.187 321.503,340.854 322,343.5C 322.278,344.416 322.778,345.082 323.5,345.5C 336.167,345.5 348.833,345.5 361.5,345.5C 371.059,289.146 380.726,232.813 390.5,176.5C 391.167,233.167 391.833,289.833 392.5,346.5C 412.167,346.5 431.833,346.5 451.5,346.5C 451.828,334.322 451.495,322.322 450.5,310.5C 441.582,310.817 432.749,310.484 424,309.5C 423.466,298.044 423.632,286.71 424.5,275.5C 433.5,275.5 442.5,275.5 451.5,275.5C 451.5,262.5 451.5,249.5 451.5,236.5C 442.5,236.5 433.5,236.5 424.5,236.5C 424.511,224.756 424.345,212.756 424,200.5C 432.749,199.516 441.582,199.183 450.5,199.5C 450.5,188.167 450.5,176.833 450.5,165.5C 419.493,165.167 388.493,165.5 357.5,166.5C 352.74,195.156 348.073,223.822 343.5,252.5C 342.833,252.833 342.167,253.167 341.5,253.5C 336.702,225.246 332.368,196.913 328.5,168.5C 328.5,167.167 328.5,165.833 328.5,164.5C 316.988,164.172 305.654,164.505 294.5,165.5C 295.811,170.036 296.477,174.703 296.5,179.5C 296.923,181.781 296.256,183.448 294.5,184.5C 288.066,176.399 280.4,169.732 271.5,164.5C 253.341,163.503 235.008,163.17 216.5,163.5C 216.832,213.336 216.499,263.003 215.5,312.5C 207.895,263.871 200.395,215.205 193,166.5C 178.41,164.526 163.576,163.86 148.5,164.5C 140.873,217.559 132.873,270.559 124.5,323.5C 123.501,270.336 123.168,217.003 123.5,163.5C 108.99,163.171 94.6569,163.504 80.5,164.5C 80.0479,168.546 79.3813,172.546 78.5,176.5C 76.7345,179.123 76.0679,182.123 76.5,185.5C 76.5,186.167 76.5,186.833 76.5,187.5C 74.7773,189.78 74.1107,192.447 74.5,195.5C 72.8232,207.228 70.8232,218.895 68.5,230.5C 67.6851,231.429 66.8518,232.429 66,233.5C 65.7216,232.584 65.2216,231.918 64.5,231.5C 62.1768,219.895 60.1768,208.228 58.5,196.5C 58.8893,193.447 58.2227,190.78 56.5,188.5C 54.7818,180.574 53.4485,172.574 52.5,164.5C 40.6309,164.159 28.9642,163.159 17.5,161.5C 29.051,132.037 45.3844,105.703 66.5,82.5C 72.4422,78.2269 77.7756,73.2269 82.5,67.5C 113.617,37.8053 150.283,17.8053 192.5,7.5C 195.228,7.82943 197.562,7.16276 199.5,5.5C 211.197,2.93996 222.864,0.939956 234.5,-0.5 Z"/></g>
<g><path style="opacity:0.773" fill="#ff6853" d="M 307.5,4.5 C 310.01,4.92668 312.343,5.59334 314.5,6.5C 312.473,6.66212 310.473,6.49546 308.5,6C 307.944,5.61742 307.611,5.11742 307.5,4.5 Z"/></g>
<g><path style="opacity:0.773" fill="#ff6855" d="M 199.5,5.5 C 197.562,7.16276 195.228,7.82943 192.5,7.5C 194.599,6.38815 196.933,5.72148 199.5,5.5 Z"/></g>
<g><path style="opacity:0.773" fill="#ff5e43" d="M 82.5,67.5 C 77.7756,73.2269 72.4422,78.2269 66.5,82.5C 71.2244,76.7731 76.5578,71.7731 82.5,67.5 Z"/></g>
<g><path style="opacity:0.153" fill="#ffafaa" d="M 17.5,161.5 C 28.9642,163.159 40.6309,164.159 52.5,164.5C 40.5,164.5 28.5,164.5 16.5,164.5C 16.2627,163.209 16.596,162.209 17.5,161.5 Z"/></g>
<g><path style="opacity:0.549" fill="#ff6459" d="M 80.5,164.5 C 94.6569,163.504 108.99,163.171 123.5,163.5C 123.168,217.003 123.501,270.336 124.5,323.5C 124.196,326.522 123.696,329.522 123,332.5C 122.5,276.501 122.333,220.501 122.5,164.5C 108.5,164.5 94.5,164.5 80.5,164.5 Z"/></g>
<g><path style="opacity:0.29" fill="#ff9793" d="M 271.5,164.5 C 253.5,164.5 235.5,164.5 217.5,164.5C 217.667,216.168 217.5,267.834 217,319.5C 216.023,317.26 215.523,314.927 215.5,312.5C 216.499,263.003 216.832,213.336 216.5,163.5C 235.008,163.17 253.341,163.503 271.5,164.5 Z"/></g>
<g><path style="opacity:0.153" fill="#ffafab" d="M 294.5,165.5 C 305.654,164.505 316.988,164.172 328.5,164.5C 328.5,165.833 328.5,167.167 328.5,168.5C 327.596,167.791 327.263,166.791 327.5,165.5C 316.5,165.5 305.5,165.5 294.5,165.5 Z"/></g>
<g><path style="opacity:0.424" fill="#ff6d66" d="M 462.5,165.5 C 472.987,164.506 483.654,164.172 494.5,164.5C 495.674,165.514 496.34,166.847 496.5,168.5C 495.501,215.664 495.168,262.997 495.5,310.5C 494.501,262.336 494.168,214.003 494.5,165.5C 483.833,165.5 473.167,165.5 462.5,165.5 Z"/></g>
<g><path style="opacity:1" fill="#ff1a0b" d="M 496.5,168.5 C 499.64,176.255 501.974,184.255 503.5,192.5C 503.171,195.228 503.837,197.562 505.5,199.5C 508.163,211.514 510.163,223.514 511.5,235.5C 511.5,248.833 511.5,262.167 511.5,275.5C 510.17,286.768 508.336,298.101 506,309.5C 502.606,310.456 499.106,310.789 495.5,310.5C 495.168,262.997 495.501,215.664 496.5,168.5 Z"/></g>
<g><path style="opacity:0.29" fill="#ff918d" d="M 392.5,345.5 C 392.5,345.833 392.5,346.167 392.5,346.5C 391.833,289.833 391.167,233.167 390.5,176.5C 390.892,174.821 391.392,173.154 392,171.5C 392.5,229.499 392.667,287.499 392.5,345.5 Z"/></g>
<g><path style="opacity:0.773" fill="#ff6a56" d="M 78.5,176.5 C 78.1417,179.689 77.475,182.689 76.5,185.5C 76.0679,182.123 76.7345,179.123 78.5,176.5 Z"/></g>
<g><path style="opacity:0.29" fill="#ff918d" d="M 8.5,323.5 C 9.83333,278.167 9.83333,232.833 8.5,187.5C 8.89233,185.821 9.39233,184.154 10,182.5C 10.6667,231.5 10.6667,280.5 10,329.5C 9.49543,327.482 8.99543,325.482 8.5,323.5 Z"/></g>
<g><path style="opacity:0.773" fill="#ff6351" d="M 296.5,179.5 C 297.743,182.633 298.243,185.967 298,189.5C 296.331,188.154 295.164,186.487 294.5,184.5C 296.256,183.448 296.923,181.781 296.5,179.5 Z"/></g>
<g><path style="opacity:0.773" fill="#ff6552" d="M 76.5,187.5 C 76.1977,190.373 75.531,193.039 74.5,195.5C 74.1107,192.447 74.7773,189.78 76.5,187.5 Z"/></g>
<g><path style="opacity:1" fill="#ff2312" d="M 8.5,187.5 C 9.83333,232.833 9.83333,278.167 8.5,323.5C 4.19028,307.625 1.19028,291.625 -0.5,275.5C -0.5,262.167 -0.5,248.833 -0.5,235.5C 1.40516,219.417 4.40516,203.417 8.5,187.5 Z"/></g>
<g><path style="opacity:0.773" fill="#ff6451" d="M 56.5,188.5 C 58.2227,190.78 58.8893,193.447 58.5,196.5C 57.469,194.039 56.8023,191.373 56.5,188.5 Z"/></g>
<g><path style="opacity:0.773" fill="#ff6856" d="M 503.5,192.5 C 504.612,194.599 505.279,196.933 505.5,199.5C 503.837,197.562 503.171,195.228 503.5,192.5 Z"/></g>
<g><path style="opacity:0.071" fill="#ffc0bf" d="M 255.5,198.5 C 254.167,198.5 252.833,198.5 251.5,198.5C 251.5,216.167 251.5,233.833 251.5,251.5C 250.503,233.674 250.17,215.674 250.5,197.5C 252.415,197.216 254.081,197.549 255.5,198.5 Z"/></g>
<g><path style="opacity:1" fill="#ff1c0b" d="M 255.5,198.5 C 261.359,200.189 265.526,203.856 268,209.5C 272.834,221.665 271.834,233.332 265,244.5C 261.494,248.859 256.994,251.193 251.5,251.5C 251.5,233.833 251.5,216.167 251.5,198.5C 252.833,198.5 254.167,198.5 255.5,198.5 Z"/></g>
<g><path style="opacity:0.773" fill="#ff6755" d="M 68.5,230.5 C 67.2452,241.49 65.9119,241.823 64.5,231.5C 65.2216,231.918 65.7216,232.584 66,233.5C 66.8518,232.429 67.6851,231.429 68.5,230.5 Z"/></g>
<g><path style="opacity:0.071" fill="#ffb8b5" d="M 424.5,236.5 C 433.5,236.5 442.5,236.5 451.5,236.5C 451.5,249.5 451.5,262.5 451.5,275.5C 442.5,275.5 433.5,275.5 424.5,275.5C 432.984,274.507 441.651,274.174 450.5,274.5C 450.5,262.167 450.5,249.833 450.5,237.5C 441.651,237.826 432.984,237.493 424.5,236.5 Z"/></g>
<g><path style="opacity:1" fill="#ff2a18" d="M 177.5,288.5 C 177.5,289.833 177.5,291.167 177.5,292.5C 172.833,292.5 168.167,292.5 163.5,292.5C 165.346,275.066 167.846,257.733 171,240.5C 173.588,256.45 175.755,272.45 177.5,288.5 Z"/></g>
<g><path style="opacity:0.153" fill="#ff9189" d="M 343.5,252.5 C 342.912,258.146 342.246,258.479 341.5,253.5C 342.167,253.167 342.833,252.833 343.5,252.5 Z"/></g>
<g><path style="opacity:0.549" fill="#ff5950" d="M 177.5,288.5 C 178.451,289.919 178.784,291.585 178.5,293.5C 173.305,293.821 168.305,293.487 163.5,292.5C 168.167,292.5 172.833,292.5 177.5,292.5C 177.5,291.167 177.5,289.833 177.5,288.5 Z"/></g>
<g><path style="opacity:0.071" fill="#fec4c2" d="M 504.5,311.5 C 505.525,311.897 505.692,312.563 505,313.5C 504.536,312.906 504.369,312.239 504.5,311.5 Z"/></g>
<g><path style="opacity:0.071" fill="#fec4c2" d="M 503.5,315.5 C 504.525,315.897 504.692,316.563 504,317.5C 503.536,316.906 503.369,316.239 503.5,315.5 Z"/></g>
<g><path style="opacity:0.071" fill="#fec4c2" d="M 502.5,319.5 C 503.525,319.897 503.692,320.563 503,321.5C 502.536,320.906 502.369,320.239 502.5,319.5 Z"/></g>
<g><path style="opacity:0.071" fill="#fec4c2" d="M 501.5,323.5 C 502.525,323.897 502.692,324.563 502,325.5C 501.536,324.906 501.369,324.239 501.5,323.5 Z"/></g>
<g><path style="opacity:0.071" fill="#fec4c2" d="M 500.5,327.5 C 501.525,327.897 501.692,328.563 501,329.5C 500.536,328.906 500.369,328.239 500.5,327.5 Z"/></g>
<g><path style="opacity:0.071" fill="#fec4c2" d="M 10.5,330.5 C 11.525,330.897 11.6917,331.563 11,332.5C 10.5357,331.906 10.369,331.239 10.5,330.5 Z"/></g>
<g><path style="opacity:0.071" fill="#fec4c2" d="M 499.5,330.5 C 500.525,330.897 500.692,331.563 500,332.5C 499.536,331.906 499.369,331.239 499.5,330.5 Z"/></g>
<g><path style="opacity:0.071" fill="#fec4c2" d="M 11.5,333.5 C 12.525,333.897 12.6917,334.563 12,335.5C 11.5357,334.906 11.369,334.239 11.5,333.5 Z"/></g>
<g><path style="opacity:0.071" fill="#fec4c2" d="M 498.5,333.5 C 499.525,333.897 499.692,334.563 499,335.5C 498.536,334.906 498.369,334.239 498.5,333.5 Z"/></g>
<g><path style="opacity:0.071" fill="#fec4c2" d="M 12.5,336.5 C 13.525,336.897 13.6917,337.563 13,338.5C 12.5357,337.906 12.369,337.239 12.5,336.5 Z"/></g>
<g><path style="opacity:0.071" fill="#fec4c2" d="M 497.5,336.5 C 498.525,336.897 498.692,337.563 498,338.5C 497.536,337.906 497.369,337.239 497.5,336.5 Z"/></g>
<g><path style="opacity:0.071" fill="#fec4c2" d="M 13.5,339.5 C 14.525,339.897 14.6917,340.563 14,341.5C 13.5357,340.906 13.369,340.239 13.5,339.5 Z"/></g>
<g><path style="opacity:0.071" fill="#fec4c2" d="M 496.5,339.5 C 497.525,339.897 497.692,340.563 497,341.5C 496.536,340.906 496.369,340.239 496.5,339.5 Z"/></g>
<g><path style="opacity:0.773" fill="#ff614d" d="M 321.5,335.5 C 322.434,338.656 323.101,341.989 323.5,345.5C 322.778,345.082 322.278,344.416 322,343.5C 321.503,340.854 321.336,338.187 321.5,335.5 Z"/></g>
<g><path style="opacity:0.071" fill="#fec4c2" d="M 14.5,342.5 C 15.8333,343.167 15.8333,343.167 14.5,342.5 Z"/></g>
<g><path style="opacity:0.071" fill="#fec4c2" d="M 495.5,342.5 C 496.833,343.167 496.833,343.167 495.5,342.5 Z"/></g>
<g><path style="opacity:0.153" fill="#ffafab" d="M 272.5,344.5 C 283.931,345.819 295.265,345.819 306.5,344.5C 307.043,344.56 307.376,344.893 307.5,345.5C 301.667,345.833 295.833,346.167 290,346.5C 283.793,346.496 277.96,345.829 272.5,344.5 Z"/></g>
<g><path style="opacity:0.153" fill="#ffb7b4" d="M 252.5,287.5 C 251.503,306.993 251.17,326.66 251.5,346.5C 229.993,346.831 208.66,346.497 187.5,345.5C 208.5,345.5 229.5,345.5 250.5,345.5C 250.333,325.497 250.5,305.497 251,285.5C 251.717,286.044 252.217,286.711 252.5,287.5 Z"/></g>
<g><path style="opacity:0.153" fill="#ffb7b3" d="M 450.5,310.5 C 451.495,322.322 451.828,334.322 451.5,346.5C 431.833,346.5 412.167,346.5 392.5,346.5C 392.5,346.167 392.5,345.833 392.5,345.5C 411.833,345.5 431.167,345.5 450.5,345.5C 450.5,333.833 450.5,322.167 450.5,310.5 Z"/></g>
<g><path style="opacity:0.153" fill="#ffaea9" d="M 58.5,345.5 C 63.4053,346.445 68.4053,346.779 73.5,346.5C 71.1903,347.164 68.6903,347.497 66,347.5C 63.0706,347.475 60.5706,346.809 58.5,345.5 Z"/></g>
</svg>
